<?xml version="1.0" encoding="UTF-8" standalone="no"?>
<!-- Created with Inkscape (http://www.inkscape.org/) -->

<svg
   xmlns:dc="http://purl.org/dc/elements/1.1/"
   xmlns:cc="http://creativecommons.org/ns#"
   xmlns:rdf="http://www.w3.org/1999/02/22-rdf-syntax-ns#"
   xmlns:svg="http://www.w3.org/2000/svg"
   xmlns="http://www.w3.org/2000/svg"
   xmlns:sodipodi="http://sodipodi.sourceforge.net/DTD/sodipodi-0.dtd"
   xmlns:inkscape="http://www.inkscape.org/namespaces/inkscape"
   width="160.41292mm"
   height="194.57111mm"
   viewBox="0 0 568.39223 689.42518"
   id="svg2"
   version="1.1"
   inkscape:version="0.91 r13725"
   sodipodi:docname="well.svg">
  <defs
     id="defs4">
    <filter
       inkscape:collect="always"
       style="color-interpolation-filters:sRGB"
       id="filter4380-6"
       x="-0.008133987"
       width="1.016268"
       y="-0.022869827"
       height="1.0457397">
      <feGaussianBlur
         inkscape:collect="always"
         stdDeviation="1.5115527"
         id="feGaussianBlur4382-6" />
    </filter>
  </defs>
  <sodipodi:namedview
     id="base"
     pagecolor="#ffffff"
     bordercolor="#666666"
     borderopacity="1.0"
     inkscape:pageopacity="0.0"
     inkscape:pageshadow="2"
     inkscape:zoom="0.12374369"
     inkscape:cx="3056.7113"
     inkscape:cy="-157.50231"
     inkscape:document-units="px"
     inkscape:current-layer="layer1"
     showgrid="false"
     inkscape:window-width="1920"
     inkscape:window-height="1056"
     inkscape:window-x="0"
     inkscape:window-y="24"
     inkscape:window-maximized="1"
     fit-margin-top="0"
     fit-margin-left="0"
     fit-margin-right="0"
     fit-margin-bottom="0" />
  <metadata
     id="metadata7">
    <rdf:RDF>
      <cc:Work
         rdf:about="">
        <dc:format>image/svg+xml</dc:format>
        <dc:type
           rdf:resource="http://purl.org/dc/dcmitype/StillImage" />
        <dc:title></dc:title>
      </cc:Work>
    </rdf:RDF>
  </metadata>
  <g
     inkscape:label="Layer 1"
     inkscape:groupmode="layer"
     id="layer1"
     transform="translate(-145.9985,-72.412833)">
    <g
       id="g5815">
      <path
         id="path4400-4"
         d="m 432.42674,601.213 c -123.158,1.4e-4 -222.9974,35.50945 -222.998,79.3125 6e-4,43.80305 99.8399,79.31236 222.998,79.3125 123.1581,-1.4e-4 222.9975,-35.50945 222.9981,-79.3125 -6e-4,-43.80305 -99.84,-79.31236 -222.9981,-79.3125 z"
         style="color:#000000;clip-rule:nonzero;display:inline;overflow:visible;visibility:visible;opacity:1;isolation:auto;mix-blend-mode:normal;color-interpolation:sRGB;color-interpolation-filters:linearRGB;solid-color:#000000;solid-opacity:1;fill:none;fill-opacity:0.53164559;fill-rule:nonzero;stroke:#000000;stroke-width:4;stroke-linecap:round;stroke-linejoin:round;stroke-miterlimit:4;stroke-dasharray:none;stroke-dashoffset:0;stroke-opacity:1;color-rendering:auto;image-rendering:auto;shape-rendering:auto;text-rendering:auto;enable-background:accumulate"
         inkscape:connector-curvature="0"
         sodipodi:nodetypes="scscs" />
      <path
         inkscape:connector-curvature="0"
         id="rect4330-9"
         d="m 432.42674,326.44375 c -123.1588,0 -222.998,35.36617 -222.998,78.99303 l 0.2598,0 0,274.67233 -0.2598,0 c 0,1.27109 0.092,2.53491 0.2598,3.7913 l 0,4.45075 0.9433,0 c 11.6353,39.75337 106.4937,70.75097 221.7949,70.75097 115.3012,0 210.1597,-30.99759 221.795,-70.75097 l 0.9433,0 0,-4.45075 c 0.1676,-1.2564 0.2598,-2.52021 0.2598,-3.7913 l -0.2598,0 0,-274.67233 0.2598,0 c 0,-43.62687 -99.8393,-78.99303 -222.9981,-78.99303 z"
         style="color:#000000;clip-rule:nonzero;display:inline;overflow:visible;visibility:visible;opacity:1;isolation:auto;mix-blend-mode:normal;color-interpolation:sRGB;color-interpolation-filters:linearRGB;solid-color:#000000;solid-opacity:1;fill:#8c8d8d;fill-opacity:1;fill-rule:nonzero;stroke:none;stroke-width:4;stroke-linecap:round;stroke-linejoin:round;stroke-miterlimit:4;stroke-dasharray:none;stroke-dashoffset:0;stroke-opacity:1;color-rendering:auto;image-rendering:auto;shape-rendering:auto;text-rendering:auto;enable-background:accumulate" />
      <path
         inkscape:connector-curvature="0"
         id="path4255-5"
         d="m 258.37164,415.05321 c 0,0 -35.6078,6.06091 -40.4061,11.36421 -4.7982,5.3033 -7.5761,5.05076 -7.5761,13.13199 0,8.08122 0,30.30457 0,37.62818 0,7.3236 0.7576,15.65736 20.7081,29.54696 19.9505,13.8896 53.033,26.01143 66.165,28.78935 13.132,2.77792 25.0013,9.09137 33.3351,5.55584 8.3337,-3.53554 9.5964,-13.8896 10.354,-25.50636 0.7576,-11.61675 2.2729,-28.03173 2.7779,-32.82995 0.5051,-4.79823 12.6269,-23.23351 15.9099,-28.03174 3.283,-4.79822 0.5051,-10.35406 -7.3236,-12.37437 -7.8287,-2.0203 -41.4162,-8.58629 -54.5482,-13.88959 -13.132,-5.3033 -23.2335,-9.59645 -28.7894,-11.61675 -5.5558,-2.02031 -10.6066,-1.76777 -10.6066,-1.76777 z"
         style="color:#000000;clip-rule:nonzero;display:inline;overflow:visible;visibility:visible;opacity:1;isolation:auto;mix-blend-mode:normal;color-interpolation:sRGB;color-interpolation-filters:linearRGB;solid-color:#000000;solid-opacity:1;fill:#9098a3;fill-opacity:1;fill-rule:evenodd;stroke:#000000;stroke-width:4;stroke-linecap:butt;stroke-linejoin:miter;stroke-miterlimit:4;stroke-dasharray:none;stroke-dashoffset:0;stroke-opacity:1;color-rendering:auto;image-rendering:auto;shape-rendering:auto;text-rendering:auto;enable-background:accumulate" />
      <path
         sodipodi:nodetypes="sssssssssssss"
         inkscape:connector-curvature="0"
         id="path4257-0"
         d="m 362.29114,457.35334 c -5.2084,6.35043 -10.2278,17.29887 -11.8693,21.59201 -1.6415,4.29315 -4.9245,38.76461 -5.4296,49.49748 -0.5051,10.73287 2.0203,13.38452 5.8084,16.16244 3.7881,2.77792 50.5076,9.09137 70.7107,9.09137 20.203,0 58.3363,-1.76776 64.9023,-5.05076 6.566,-3.283 8.8388,-27.52666 8.8388,-39.90103 l 0,-26.26396 c 0,-3.283 -2.0203,-20.45559 -4.2931,-25.50635 -2.2729,-5.05077 -6.566,-10.85914 -11.8693,-10.85914 -5.3033,0 -47.7297,1.76776 -58.3363,1.76776 -10.6066,0 -42.679,-3.28299 -45.7094,-1.26269 -3.0305,2.02031 -9.2298,6.43681 -12.7532,10.73287 z"
         style="color:#000000;clip-rule:nonzero;display:inline;overflow:visible;visibility:visible;opacity:1;isolation:auto;mix-blend-mode:normal;color-interpolation:sRGB;color-interpolation-filters:linearRGB;solid-color:#000000;solid-opacity:1;fill:#9c9c9c;fill-opacity:1;fill-rule:evenodd;stroke:#000000;stroke-width:4;stroke-linecap:butt;stroke-linejoin:miter;stroke-miterlimit:4;stroke-dasharray:none;stroke-dashoffset:0;stroke-opacity:1;color-rendering:auto;image-rendering:auto;shape-rendering:auto;text-rendering:auto;enable-background:accumulate" />
      <path
         sodipodi:nodetypes="asssssssssssasa"
         inkscape:connector-curvature="0"
         id="path4259-4"
         d="m 499.33444,449.4202 c -2.6994,7.63167 -2.0128,8.38017 -0.7628,24.27303 1.25,15.89285 0.7142,45.71428 0.7142,54.28571 0,8.57143 2.3215,16.78572 12.1429,18.03572 9.8214,1.25 53.3929,-8.21429 71.25,-15 17.8571,-6.78572 30.8878,-13.05216 35.5598,-17.09277 4.6719,-4.04061 1.6415,-25.38009 1.0101,-32.19862 -0.6313,-6.81853 -4.0406,-22.72843 -4.9245,-26.89531 -0.8838,-4.16688 -7.7024,-12.6269 -12.6269,-17.80394 -4.9245,-5.17703 -9.5964,-9.72272 -13.5107,-11.11167 -3.9144,-1.38896 -7.0711,-1.2627 -11.8693,0.25253 -1.3466,0.42524 -6.8167,2.52674 -14.4127,5.2532 -7.8703,2.82492 -19.0379,5.70717 -28.7415,7.80292 -9.8171,2.12029 -25.0721,3.80261 -29.7441,4.81 -1.7996,0.38802 -3.3328,3.26418 -4.0845,5.3892 z"
         style="color:#000000;clip-rule:nonzero;display:inline;overflow:visible;visibility:visible;opacity:1;isolation:auto;mix-blend-mode:normal;color-interpolation:sRGB;color-interpolation-filters:linearRGB;solid-color:#000000;solid-opacity:1;fill:#98a0a7;fill-opacity:1;fill-rule:evenodd;stroke:#000000;stroke-width:4;stroke-linecap:butt;stroke-linejoin:miter;stroke-miterlimit:4;stroke-dasharray:none;stroke-dashoffset:0;stroke-opacity:1;color-rendering:auto;image-rendering:auto;shape-rendering:auto;text-rendering:auto;enable-background:accumulate" />
      <path
         sodipodi:nodetypes="sasssssssssss"
         inkscape:connector-curvature="0"
         id="path4261-8"
         d="m 613.75014,384.76466 c 7.0127,-3.06301 13.8229,-2.93481 20.8482,-3.16965 4.0747,-0.1362 8.6161,-0.93749 12.1875,1.02679 3.5715,1.96429 8.2143,12.67857 8.2143,18.75 0,6.07143 2.1429,74.10714 0.5357,78.92857 -1.6071,4.82143 -14.8214,19.64286 -19.4642,22.67857 -4.6429,3.03572 -10.8929,5.71429 -11.4286,-2.67857 -0.5357,-8.39286 -4.8214,-41.78571 -5.7143,-49.64286 -0.8929,-7.85714 -23.9286,-24.82143 -26.7857,-26.96428 -2.8572,-2.14286 -0.5357,-6.96429 2.1428,-9.46429 2.6786,-2.5 10.1786,-6.25 11.9643,-11.60714 1.7857,-5.35714 1.9643,-10.80357 1.9643,-12.90179 0,-2.09821 3.2662,-3.96408 5.5357,-4.95535 z"
         style="color:#000000;clip-rule:nonzero;display:inline;overflow:visible;visibility:visible;opacity:1;isolation:auto;mix-blend-mode:normal;color-interpolation:sRGB;color-interpolation-filters:linearRGB;solid-color:#000000;solid-opacity:1;fill:#a7acac;fill-opacity:1;fill-rule:evenodd;stroke:#000000;stroke-width:4;stroke-linecap:butt;stroke-linejoin:miter;stroke-miterlimit:4;stroke-dasharray:none;stroke-dashoffset:0;stroke-opacity:1;color-rendering:auto;image-rendering:auto;shape-rendering:auto;text-rendering:auto;enable-background:accumulate" />
      <path
         inkscape:connector-curvature="0"
         id="path4263-7"
         d="m 570.13004,361.76766 c 0,0 14.3946,5.55584 19.8242,9.09137 5.4296,3.53554 11.3642,8.46003 12.3744,10.60661 1.0101,2.14657 4.6719,3.91434 6.6922,3.28299 2.0204,-0.63134 6.4398,-3.91434 9.344,-4.29315 2.9041,-0.3788 8.9651,-1.38896 12.7531,-1.38896 3.7881,0 9.9537,1.09992 10.8019,0.0731 0.8482,-1.02678 -0.2232,-2.67857 -3.884,-5.40178 -3.6607,-2.72322 -18.7872,-13.10663 -30.5302,-18.1574 -11.743,-5.05076 -27.5266,-10.35406 -30.3046,-11.36421 -2.7779,-1.01016 -3.2723,0.0127 -3.4509,0.63768 -0.1785,0.625 -4.0625,14.55357 -4.0625,15.40179 0,0.84821 0.4424,1.51193 0.4424,1.51193 z"
         style="color:#000000;clip-rule:nonzero;display:inline;overflow:visible;visibility:visible;opacity:1;isolation:auto;mix-blend-mode:normal;color-interpolation:sRGB;color-interpolation-filters:linearRGB;solid-color:#000000;solid-opacity:1;fill:#8e9494;fill-opacity:1;fill-rule:evenodd;stroke:#000000;stroke-width:4;stroke-linecap:butt;stroke-linejoin:miter;stroke-miterlimit:4;stroke-dasharray:none;stroke-dashoffset:0;stroke-opacity:1;color-rendering:auto;image-rendering:auto;shape-rendering:auto;text-rendering:auto;enable-background:accumulate" />
      <path
         sodipodi:nodetypes="csssssssssc"
         inkscape:connector-curvature="0"
         id="path4265-1"
         d="m 565.31264,356.86287 c 0,0 2.9911,-10.625 2.9911,-11.33928 0,-0.71429 0.7143,-3.21429 -7.1429,-5.04465 -7.8571,-1.83035 -36.345,-6.69968 -41.6483,-7.70984 -5.3033,-1.01015 -58.5826,-6.89403 -60.0978,-5.63134 -1.5152,1.26269 -1.389,5.05076 -2.0203,8.58629 -0.6314,3.53554 -0.8839,5.30331 2.1466,6.06092 3.0304,0.75761 66.4112,7.65165 76.3865,10.3033 9.9752,2.65165 23.0756,6.56599 24.3383,6.97637 1.2627,0.41037 3.5356,0.47351 4.1985,0.0316 0.6629,-0.44195 0.8483,-2.23334 0.8483,-2.23334 z"
         style="color:#000000;clip-rule:nonzero;display:inline;overflow:visible;visibility:visible;opacity:1;isolation:auto;mix-blend-mode:normal;color-interpolation:sRGB;color-interpolation-filters:linearRGB;solid-color:#000000;solid-opacity:1;fill:#9098a3;fill-opacity:1;fill-rule:evenodd;stroke:#000000;stroke-width:4;stroke-linecap:butt;stroke-linejoin:miter;stroke-miterlimit:4;stroke-dasharray:none;stroke-dashoffset:0;stroke-opacity:1;color-rendering:auto;image-rendering:auto;shape-rendering:auto;text-rendering:auto;enable-background:accumulate" />
      <path
         sodipodi:nodetypes="csssssssc"
         inkscape:connector-curvature="0"
         id="path4269-7"
         d="m 453.08364,337.27912 c 0,0 2.3532,-8.59395 -0.8036,-10.36172 -3.1567,-1.76777 -44.4095,-0.37881 -58.9304,1.01015 -14.521,1.38896 -23.4861,1.26269 -24.1174,3.91434 -0.6314,2.65165 0,10.98541 1.5152,12.2481 1.5152,1.26269 6.1872,0.37881 12.2481,-0.37881 6.0609,-0.75761 25.1275,-2.14657 29.1681,-2.14657 4.0407,0 37.5414,-0.37881 38.9303,-0.37881 1.389,0 1.9897,-3.90668 1.9897,-3.90668 z"
         style="color:#000000;clip-rule:nonzero;display:inline;overflow:visible;visibility:visible;opacity:1;isolation:auto;mix-blend-mode:normal;color-interpolation:sRGB;color-interpolation-filters:linearRGB;solid-color:#000000;solid-opacity:1;fill:#9c9c9c;fill-opacity:1;fill-rule:evenodd;stroke:#000000;stroke-width:4;stroke-linecap:butt;stroke-linejoin:miter;stroke-miterlimit:4;stroke-dasharray:none;stroke-dashoffset:0;stroke-opacity:1;color-rendering:auto;image-rendering:auto;shape-rendering:auto;text-rendering:auto;enable-background:accumulate" />
      <path
         inkscape:connector-curvature="0"
         id="path4271-2"
         d="m 363.04874,341.69088 c 0,0 1.0102,-7.82868 -0.5051,-9.47018 -1.5152,-1.6415 -32.7037,1.26269 -55.8109,8.46003 -23.1072,7.19733 -30.3046,7.95495 -30.9359,10.98541 -0.6314,3.03045 6.566,14.14213 7.9549,15.02601 1.389,0.88389 9.7227,-3.03045 17.804,-6.81853 8.0812,-3.78807 45.2043,-10.9854 45.2043,-10.9854 0,0 13.6371,-2.14658 15.1523,-2.77792 1.5152,-0.63135 1.1364,-4.41942 1.1364,-4.41942 z"
         style="color:#000000;clip-rule:nonzero;display:inline;overflow:visible;visibility:visible;opacity:1;isolation:auto;mix-blend-mode:normal;color-interpolation:sRGB;color-interpolation-filters:linearRGB;solid-color:#000000;solid-opacity:1;fill:#a7acac;fill-opacity:1;fill-rule:evenodd;stroke:#000000;stroke-width:4;stroke-linecap:butt;stroke-linejoin:miter;stroke-miterlimit:4;stroke-dasharray:none;stroke-dashoffset:0;stroke-opacity:1;color-rendering:auto;image-rendering:auto;shape-rendering:auto;text-rendering:auto;enable-background:accumulate" />
      <path
         sodipodi:nodetypes="csssssssssc"
         inkscape:connector-curvature="0"
         id="path4273-7"
         d="m 277.56454,365.42946 c 0,0 -4.6719,-10.85914 -7.4498,-10.85914 -2.778,0 -29.9258,4.67196 -46.3408,23.23351 -16.415,18.56156 -15.1523,26.26397 -12.7532,33.84011 2.3992,7.57615 5.8084,9.47018 10.7329,7.70242 4.9245,-1.76777 32.9562,-7.70242 36.3655,-9.97526 3.4093,-2.27284 3.7881,-5.55584 2.9042,-8.08122 -0.8839,-2.52538 -3.1567,-8.9651 -2.2728,-12.37437 0.8838,-3.40926 8.2074,-11.23795 10.2277,-13.13198 2.0204,-1.89404 7.7184,-4.67959 8.2541,-5.5278 0.5357,-0.84822 0.3322,-4.82627 0.3322,-4.82627 z"
         style="color:#000000;clip-rule:nonzero;display:inline;overflow:visible;visibility:visible;opacity:1;isolation:auto;mix-blend-mode:normal;color-interpolation:sRGB;color-interpolation-filters:linearRGB;solid-color:#000000;solid-opacity:1;fill:#8e9494;fill-opacity:1;fill-rule:evenodd;stroke:#000000;stroke-width:4;stroke-linecap:butt;stroke-linejoin:miter;stroke-miterlimit:4;stroke-dasharray:none;stroke-dashoffset:0;stroke-opacity:1;color-rendering:auto;image-rendering:auto;shape-rendering:auto;text-rendering:auto;enable-background:accumulate" />
      <path
         sodipodi:nodetypes="csssssssc"
         inkscape:connector-curvature="0"
         id="path4294-2"
         d="m 273.27144,534.25121 c -11.1117,-4.04061 -15.1523,-5.80838 -15.9099,2.77792 -0.7576,8.58629 -4.2932,35.1028 -3.283,42.17386 1.0101,7.07107 25.7589,22.4759 60.8617,28.03174 35.1028,5.55584 77.5292,11.61675 86.1155,10.85913 8.5863,-0.75761 7.5761,-17.42512 7.5761,-34.09264 0,-16.66752 1.7255,-20.39728 -2.1138,-24.32585 -3.8393,-3.92857 -32.4107,-3.66071 -62.4107,-7.94643 -30,-4.28571 -70.8359,-17.47773 -70.8359,-17.47773 z"
         style="color:#000000;clip-rule:nonzero;display:inline;overflow:visible;visibility:visible;opacity:1;isolation:auto;mix-blend-mode:normal;color-interpolation:sRGB;color-interpolation-filters:linearRGB;solid-color:#000000;solid-opacity:1;fill:#98a0a7;fill-opacity:1;fill-rule:evenodd;stroke:#000000;stroke-width:4;stroke-linecap:butt;stroke-linejoin:miter;stroke-miterlimit:4;stroke-dasharray:none;stroke-dashoffset:0;stroke-opacity:1;color-rendering:auto;image-rendering:auto;shape-rendering:auto;text-rendering:auto;enable-background:accumulate" />
      <path
         inkscape:connector-curvature="0"
         id="path4296-2"
         d="m 417.47074,564.30324 0,46.71956 c 0,0 1.2627,7.57614 8.5863,8.33376 7.3236,0.75761 68.9429,0.25254 96.217,-5.55584 27.2741,-5.80838 39.901,-3.03046 45.9619,-10.6066 6.061,-7.57615 4.7983,-22.98097 2.5254,-32.07235 -2.2728,-9.09137 -2.0203,-26.26396 -7.5761,-26.26396 -5.5559,0 -49.4975,10.10152 -72.4785,11.11168 -22.9809,1.01015 -66.67,1.01015 -68.9429,2.77792 -2.2728,1.76776 -4.2931,5.55583 -4.2931,5.55583 z"
         style="color:#000000;clip-rule:nonzero;display:inline;overflow:visible;visibility:visible;opacity:1;isolation:auto;mix-blend-mode:normal;color-interpolation:sRGB;color-interpolation-filters:linearRGB;solid-color:#000000;solid-opacity:1;fill:#a7acac;fill-opacity:1;fill-rule:evenodd;stroke:#000000;stroke-width:4;stroke-linecap:butt;stroke-linejoin:miter;stroke-miterlimit:4;stroke-dasharray:none;stroke-dashoffset:0;stroke-opacity:1;color-rendering:auto;image-rendering:auto;shape-rendering:auto;text-rendering:auto;enable-background:accumulate" />
      <path
         sodipodi:nodetypes="cssssccsc"
         inkscape:connector-curvature="0"
         id="path4298-6"
         d="m 576.82224,540.56466 c 0,0 -4.5457,-0.75761 -2.2728,9.84899 2.2728,10.6066 4.5457,42.17387 8.8388,44.19417 4.2932,2.02031 23.9911,-2.52538 38.8909,-12.87944 14.8997,-10.35407 26.6496,-23.03515 28.0782,-25.8923 1.4285,-2.85714 5,-7.32142 5,-7.32142 l 0,-59.46429 c 0,0 -27.6786,28.03572 -37.8572,32.5 -10.1786,4.46429 -40.6779,19.01429 -40.6779,19.01429 z"
         style="color:#000000;clip-rule:nonzero;display:inline;overflow:visible;visibility:visible;opacity:1;isolation:auto;mix-blend-mode:normal;color-interpolation:sRGB;color-interpolation-filters:linearRGB;solid-color:#000000;solid-opacity:1;fill:#8e9494;fill-opacity:1;fill-rule:evenodd;stroke:#000000;stroke-width:4;stroke-linecap:butt;stroke-linejoin:miter;stroke-miterlimit:4;stroke-dasharray:none;stroke-dashoffset:0;stroke-opacity:1;color-rendering:auto;image-rendering:auto;shape-rendering:auto;text-rendering:auto;enable-background:accumulate" />
      <path
         inkscape:connector-curvature="0"
         id="path4300-1"
         d="m 250.54304,529.70552 c 0,0 -3.5356,36.87057 -5.0508,41.92133 -1.5152,5.05076 -5.8084,7.07107 -10.6066,4.79823 -4.7982,-2.27285 -16.6675,-12.87945 -20.9607,-19.44544 -4.2931,-6.56599 -3.9164,-6.78348 -3.9164,-6.78348 l 0,-58.87644 c 0,0 7.957,14.64721 16.2908,21.46574 8.3338,6.81853 24.2437,16.92006 24.2437,16.92006 z"
         style="color:#000000;clip-rule:nonzero;display:inline;overflow:visible;visibility:visible;opacity:1;isolation:auto;mix-blend-mode:normal;color-interpolation:sRGB;color-interpolation-filters:linearRGB;solid-color:#000000;solid-opacity:1;fill:#9c9c9c;fill-opacity:1;fill-rule:evenodd;stroke:#000000;stroke-width:4;stroke-linecap:butt;stroke-linejoin:miter;stroke-miterlimit:4;stroke-dasharray:none;stroke-dashoffset:0;stroke-opacity:1;color-rendering:auto;image-rendering:auto;shape-rendering:auto;text-rendering:auto;enable-background:accumulate" />
      <path
         style="color:#000000;clip-rule:nonzero;display:inline;overflow:visible;visibility:visible;opacity:1;isolation:auto;mix-blend-mode:normal;color-interpolation:sRGB;color-interpolation-filters:linearRGB;solid-color:#000000;solid-opacity:1;fill:#9c9c9c;fill-opacity:1;fill-rule:evenodd;stroke:#000000;stroke-width:4;stroke-linecap:butt;stroke-linejoin:miter;stroke-miterlimit:4;stroke-dasharray:none;stroke-dashoffset:0;stroke-opacity:1;color-rendering:auto;image-rendering:auto;shape-rendering:auto;text-rendering:auto;enable-background:accumulate"
         d="m 592.08534,671.39407 c 11.1116,-4.04061 15.1522,-5.80838 15.9099,2.77792 0.7576,8.58629 4.2931,35.1028 3.283,42.17386 -1.0102,7.07107 -25.7589,22.4759 -60.8617,28.03174 -35.1028,5.55584 -77.5292,11.61675 -86.1155,10.85913 -8.5863,-0.75761 -7.5762,-17.42512 -7.5762,-34.09264 0,-16.66752 -1.7254,-20.39728 2.1139,-24.32585 3.8393,-3.92857 32.4107,-3.66071 62.4107,-7.94643 30,-4.28571 70.8359,-17.47773 70.8359,-17.47773 z"
         id="path4314-0"
         inkscape:connector-curvature="0"
         sodipodi:nodetypes="csssssssc" />
      <path
         style="color:#000000;clip-rule:nonzero;display:inline;overflow:visible;visibility:visible;opacity:1;isolation:auto;mix-blend-mode:normal;color-interpolation:sRGB;color-interpolation-filters:linearRGB;solid-color:#000000;solid-opacity:1;fill:#9098a3;fill-opacity:1;fill-rule:evenodd;stroke:#000000;stroke-width:4;stroke-linecap:butt;stroke-linejoin:miter;stroke-miterlimit:4;stroke-dasharray:none;stroke-dashoffset:0;stroke-opacity:1;color-rendering:auto;image-rendering:auto;shape-rendering:auto;text-rendering:auto;enable-background:accumulate"
         d="m 447.88604,701.4461 0,46.71956 c 0,0 -1.2627,7.57614 -8.5863,8.33376 -7.3236,0.75761 -68.9429,0.25254 -96.217,-5.55584 -27.2742,-5.80838 -39.9011,-3.03046 -45.962,-10.6066 -6.0609,-7.57615 -4.7982,-22.98097 -2.5254,-32.07235 2.2729,-9.09137 2.0203,-26.26396 7.5762,-26.26396 5.5558,0 49.4974,10.10152 72.4784,11.11168 22.981,1.01015 66.6701,1.01015 68.9429,2.77792 2.2729,1.76776 4.2932,5.55583 4.2932,5.55583 z"
         id="path4316-6"
         inkscape:connector-curvature="0" />
      <path
         style="color:#000000;clip-rule:nonzero;display:inline;overflow:visible;visibility:visible;opacity:1;isolation:auto;mix-blend-mode:normal;color-interpolation:sRGB;color-interpolation-filters:linearRGB;solid-color:#000000;solid-opacity:1;fill:#8e9494;fill-opacity:1;fill-rule:evenodd;stroke:#000000;stroke-width:4;stroke-linecap:butt;stroke-linejoin:miter;stroke-miterlimit:4;stroke-dasharray:none;stroke-dashoffset:0;stroke-opacity:1;color-rendering:auto;image-rendering:auto;shape-rendering:auto;text-rendering:auto;enable-background:accumulate"
         d="m 288.53444,677.70752 c 0,0 4.5457,-0.75761 2.2729,9.84899 -2.2729,10.6066 -4.5457,42.17387 -8.8389,44.19417 -4.2931,2.02031 -23.9911,-2.52538 -38.8908,-12.87944 -14.8998,-10.35407 -26.6496,-23.03515 -28.0782,-25.8923 -1.4286,-2.85714 -5,-7.32142 -5,-7.32142 l 0,-55.63123 c 0,0 0.7257,-3.09802 1.9852,-1.84702 6.5194,6.47505 27.3415,26.77254 35.8719,30.51396 10.1786,4.46429 40.6779,19.01429 40.6779,19.01429 z"
         id="path4318-1"
         inkscape:connector-curvature="0"
         sodipodi:nodetypes="cssssccssc" />
      <path
         style="color:#000000;clip-rule:nonzero;display:inline;overflow:visible;visibility:visible;opacity:1;isolation:auto;mix-blend-mode:normal;color-interpolation:sRGB;color-interpolation-filters:linearRGB;solid-color:#000000;solid-opacity:1;fill:#98a0a7;fill-opacity:1;fill-rule:evenodd;stroke:#000000;stroke-width:4;stroke-linecap:butt;stroke-linejoin:miter;stroke-miterlimit:4;stroke-dasharray:none;stroke-dashoffset:0;stroke-opacity:1;color-rendering:auto;image-rendering:auto;shape-rendering:auto;text-rendering:auto;enable-background:accumulate"
         d="m 614.81374,666.84838 c 0,0 3.5355,36.87057 5.0507,41.92133 1.5153,5.05076 5.8084,7.07107 10.6067,4.79823 4.7982,-2.27285 16.6675,-12.87945 20.9606,-19.44544 4.2932,-6.56599 3.9165,-6.78348 3.9165,-6.78348 l 0,-58.87644 c 0,0 -7.9571,14.64721 -16.2909,21.46574 -8.3337,6.81853 -24.2436,16.92006 -24.2436,16.92006 z"
         id="path4320-5"
         inkscape:connector-curvature="0" />
      <path
         sodipodi:nodetypes="cssssssssscc"
         style="color:#000000;clip-rule:nonzero;display:inline;overflow:visible;visibility:visible;opacity:1;isolation:auto;mix-blend-mode:normal;color-interpolation:sRGB;color-interpolation-filters:linearRGB;solid-color:#000000;solid-opacity:1;fill:#a7acac;fill-opacity:1;fill-rule:evenodd;stroke:#000000;stroke-width:4;stroke-linecap:butt;stroke-linejoin:miter;stroke-miterlimit:4;stroke-dasharray:none;stroke-dashoffset:0;stroke-opacity:1;color-rendering:auto;image-rendering:auto;shape-rendering:auto;text-rendering:auto;enable-background:accumulate"
         d="m 656.13354,575.83512 0,37.62818 c 0,7.3236 -0.7576,15.65736 -20.7081,29.54696 -19.9505,13.8896 -53.033,26.01143 -66.165,28.78935 -13.132,2.77792 -25.0013,9.09137 -33.335,5.55584 -8.3338,-3.53554 -9.5965,-13.8896 -10.3541,-25.50636 -0.7576,-11.61675 -1.38,-21.60316 -1.885,-26.40138 -0.066,-0.62776 -0.7052,-7.00797 3.5247,-6.56468 8.2892,0.86871 18.6715,-3.01337 30.0637,-5.63404 22.7716,-5.23837 49.0435,-13.4604 66.9567,-24.79153 13.0712,-8.26831 21.7294,-17.5066 25.6567,-21.97443 10.6165,-8.04679 6.2493,8.17089 6.2454,9.35209 z"
         id="path4322-9"
         inkscape:connector-curvature="0" />
      <path
         style="color:#000000;clip-rule:nonzero;display:inline;overflow:visible;visibility:visible;opacity:1;isolation:auto;mix-blend-mode:normal;color-interpolation:sRGB;color-interpolation-filters:linearRGB;solid-color:#000000;solid-opacity:1;fill:#98a0a7;fill-opacity:1;fill-rule:evenodd;stroke:#000000;stroke-width:4;stroke-linecap:butt;stroke-linejoin:miter;stroke-miterlimit:4;stroke-dasharray:none;stroke-dashoffset:0;stroke-opacity:1;color-rendering:auto;image-rendering:auto;shape-rendering:auto;text-rendering:auto;enable-background:accumulate"
         d="m 517.52974,630.5882 c 1.6415,4.29315 3.4959,23.40747 4.001,34.14034 0.5051,10.73287 -2.0203,13.38452 -5.8084,16.16244 -3.788,2.77792 -50.5076,9.09137 -70.7107,9.09137 -20.203,0 -58.3363,-1.76776 -64.9023,-5.05076 -6.5659,-3.283 -8.8388,-27.52666 -8.8388,-39.90103 l 0,-15.72825 c 0,-0.46855 1.6958,-6.5789 6.7513,-6.90114 11.9421,-0.76121 35.8497,1.76932 60.5503,1.79081 29.4674,0.0256 60.0634,-4.5563 72.818,-2.57199 3.74,0.58186 5.946,8.46189 6.1396,8.96821 z"
         id="path4324-4"
         inkscape:connector-curvature="0"
         sodipodi:nodetypes="sssssssssss" />
      <path
         style="color:#000000;clip-rule:nonzero;display:inline;overflow:visible;visibility:visible;opacity:1;isolation:auto;mix-blend-mode:normal;color-interpolation:sRGB;color-interpolation-filters:linearRGB;solid-color:#000000;solid-opacity:1;fill:#9c9c9c;fill-opacity:1;fill-rule:evenodd;stroke:#000000;stroke-width:4;stroke-linecap:butt;stroke-linejoin:miter;stroke-miterlimit:4;stroke-dasharray:none;stroke-dashoffset:0;stroke-opacity:1;color-rendering:auto;image-rendering:auto;shape-rendering:auto;text-rendering:auto;enable-background:accumulate"
         d="m 367.95144,629.40407 c -1.25,15.89285 -0.7143,28.28915 -0.7143,36.86058 0,8.57143 -2.3214,16.78572 -12.1429,18.03572 -9.8214,1.25 -53.3928,-8.21429 -71.25,-15 -17.8571,-6.78572 -30.8878,-13.05216 -35.5598,-17.09277 -4.6719,-4.04061 -1.6415,-25.38009 -1.0101,-32.19862 0.6313,-6.81853 0.4219,-17.89602 3.5642,-20.7718 0,0 1.3486,-2.32553 2.5349,-2.38222 3.8516,-0.18406 10.9839,1.39897 21.4,5.92994 24.3508,10.59248 64.7288,15.5898 83.334,17.36426 7.0154,0.66908 10.0729,6.34473 9.844,9.25491 z"
         id="path4326-9"
         inkscape:connector-curvature="0"
         sodipodi:nodetypes="sssssssssss" />
      <path
         style="color:#000000;clip-rule:nonzero;display:inline;overflow:visible;visibility:visible;opacity:1;isolation:auto;mix-blend-mode:normal;color-interpolation:sRGB;color-interpolation-filters:linearRGB;solid-color:#000000;solid-opacity:1;fill:#9098a3;fill-opacity:1;fill-rule:evenodd;stroke:#000000;stroke-width:4;stroke-linecap:butt;stroke-linejoin:miter;stroke-miterlimit:4;stroke-dasharray:none;stroke-dashoffset:0;stroke-opacity:1;color-rendering:auto;image-rendering:auto;shape-rendering:auto;text-rendering:auto;enable-background:accumulate"
         d="m 210.65234,575.59055 c -0.3349,18.37053 -0.4688,41.58482 0.3348,43.99553 1.6071,4.82143 14.8214,19.64286 19.4643,22.67857 4.6428,3.03572 10.8928,5.71429 11.4285,-2.67857 0.5358,-8.39286 2.8572,-36.96428 3.75,-44.82143 0.4293,-3.77759 -11.5676,-6.84897 -18.7247,-13.36217 -5.5217,-5.02496 -8.0811,-14.30135 -14.1667,-12.59843 -2.2791,0.63774 -2.0056,2.36034 -2.0862,6.7865 z"
         id="path4328-0"
         inkscape:connector-curvature="0"
         sodipodi:nodetypes="ssssssas" />
      <path
         id="ellipse4357-9"
         d="m 432.42674,326.35586 a 222.99875,79.312904 0 0 0 -222.998,79.3125 222.99875,79.312904 0 0 0 222.998,79.3125 222.99875,79.312904 0 0 0 222.9981,-79.3125 222.99875,79.312904 0 0 0 -222.9981,-79.3125 z m 0,15.42969 a 173.52867,52.117836 0 0 1 173.5293,52.11718 173.52867,52.117836 0 0 1 -173.5293,52.11914 173.52867,52.117836 0 0 1 -173.5293,-52.11914 173.52867,52.117836 0 0 1 173.5293,-52.11718 z"
         style="color:#000000;clip-rule:nonzero;display:inline;overflow:visible;visibility:visible;opacity:1;isolation:auto;mix-blend-mode:normal;color-interpolation:sRGB;color-interpolation-filters:linearRGB;solid-color:#000000;solid-opacity:1;fill:#4f4f4f;fill-opacity:0.37974686;fill-rule:nonzero;stroke:none;stroke-width:4;stroke-linecap:round;stroke-linejoin:round;stroke-miterlimit:4;stroke-dasharray:none;stroke-dashoffset:0;stroke-opacity:1;filter:url(#filter4380-6);color-rendering:auto;image-rendering:auto;shape-rendering:auto;text-rendering:auto;enable-background:accumulate"
         inkscape:connector-curvature="0" />
      <path
         sodipodi:nodetypes="scscs"
         inkscape:connector-curvature="0"
         style="color:#000000;clip-rule:nonzero;display:inline;overflow:visible;visibility:visible;opacity:1;isolation:auto;mix-blend-mode:normal;color-interpolation:sRGB;color-interpolation-filters:linearRGB;solid-color:#000000;solid-opacity:1;fill:#4f4f4f;fill-opacity:0.63291141;fill-rule:nonzero;stroke:none;stroke-width:4;stroke-linecap:round;stroke-linejoin:round;stroke-miterlimit:4;stroke-dasharray:none;stroke-dashoffset:0;stroke-opacity:1;color-rendering:auto;image-rendering:auto;shape-rendering:auto;text-rendering:auto;enable-background:accumulate"
         d="m 433.14104,341.78555 c 95.4422,-1.1e-4 172.8138,23.33348 172.815,52.11718 0,28.78447 -77.3703,52.11924 -172.815,52.11914 -95.4447,1e-4 -172.8174,-23.33467 -172.815,-52.11914 0,-28.7837 77.3729,-52.11729 172.815,-52.11718 z"
         id="path4384-1" />
      <path
         sodipodi:nodetypes="scscs"
         inkscape:connector-curvature="0"
         style="color:#000000;clip-rule:nonzero;display:inline;overflow:visible;visibility:visible;opacity:1;isolation:auto;mix-blend-mode:normal;color-interpolation:sRGB;color-interpolation-filters:linearRGB;solid-color:#000000;solid-opacity:1;fill:none;fill-opacity:0.53164559;fill-rule:nonzero;stroke:#000000;stroke-width:4;stroke-linecap:round;stroke-linejoin:round;stroke-miterlimit:4;stroke-dasharray:none;stroke-dashoffset:0;stroke-opacity:1;color-rendering:auto;image-rendering:auto;shape-rendering:auto;text-rendering:auto;enable-background:accumulate"
         d="m 432.42674,326.35586 c -123.158,1.4e-4 -222.9974,35.50945 -222.998,79.3125 6e-4,43.80305 99.8399,79.31236 222.998,79.3125 123.1581,-1.4e-4 222.9975,-35.50945 222.9981,-79.3125 -6e-4,-43.80305 -99.84,-79.31236 -222.9981,-79.3125 z"
         id="path4398-7" />
    </g>
    <g
       id="g5713">
      <g
         id="g5702">
        <path
           style="color:#000000;clip-rule:nonzero;display:inline;overflow:visible;visibility:visible;opacity:1;isolation:auto;mix-blend-mode:normal;color-interpolation:sRGB;color-interpolation-filters:linearRGB;solid-color:#000000;solid-opacity:1;fill:#b19381;fill-opacity:1;fill-rule:nonzero;stroke:none;stroke-width:4;stroke-linecap:round;stroke-linejoin:round;stroke-miterlimit:4;stroke-dasharray:none;stroke-dashoffset:0;stroke-opacity:1;color-rendering:auto;image-rendering:auto;shape-rendering:auto;text-rendering:auto;enable-background:accumulate"
           d="m 437.04688,244.8457 c -7.06256,2.80074 -13.74987,9.31523 -12.92188,17.56836 -0.0756,3.53027 -1.1265,12.04331 4.71875,10.72852 7.57035,-3.12698 13.32618,-10.7165 11.76367,-19.18946 -0.33625,-2.8813 1.09299,-9.16942 -3.56054,-9.10742 z"
           id="path5556"
           inkscape:connector-curvature="0" />
        <path
           style="color:#000000;clip-rule:nonzero;display:inline;overflow:visible;visibility:visible;opacity:1;isolation:auto;mix-blend-mode:normal;color-interpolation:sRGB;color-interpolation-filters:linearRGB;solid-color:#000000;solid-opacity:1;fill:#b19381;fill-opacity:1;fill-rule:nonzero;stroke:none;stroke-width:4;stroke-linecap:round;stroke-linejoin:round;stroke-miterlimit:4;stroke-dasharray:none;stroke-dashoffset:0;stroke-opacity:1;color-rendering:auto;image-rendering:auto;shape-rendering:auto;text-rendering:auto;enable-background:accumulate"
           d="m 435.63281,269.20898 c -9.01289,2.2352 -11.9828,13.41575 -11.53906,21.62696 0.0731,4.99105 6.3059,3.27403 8.46875,0.72851 6.06883,-3.24421 8.51246,-9.92381 8.02734,-16.49804 0.41705,-2.89694 -1.89021,-6.0665 -4.95703,-5.85743 z"
           id="path5558"
           inkscape:connector-curvature="0" />
        <path
           style="color:#000000;clip-rule:nonzero;display:inline;overflow:visible;visibility:visible;opacity:1;isolation:auto;mix-blend-mode:normal;color-interpolation:sRGB;color-interpolation-filters:linearRGB;solid-color:#000000;solid-opacity:1;fill:#b19381;fill-opacity:1;fill-rule:nonzero;stroke:none;stroke-width:4;stroke-linecap:round;stroke-linejoin:round;stroke-miterlimit:4;stroke-dasharray:none;stroke-dashoffset:0;stroke-opacity:1;color-rendering:auto;image-rendering:auto;shape-rendering:auto;text-rendering:auto;enable-background:accumulate"
           d="m 436.38867,289.67773 c -9.5975,2.63126 -13.85136,14.67918 -11.17187,23.55469 4.45754,3.30322 9.55596,-2.60584 12.80587,-5.27208 5.26105,-3.61167 2.67029,-10.92909 1.53397,-16.17128 -0.51982,-1.24937 -1.75977,-2.25268 -3.16797,-2.11133 z"
           id="path5560"
           inkscape:connector-curvature="0" />
        <path
           style="color:#000000;clip-rule:nonzero;display:inline;overflow:visible;visibility:visible;opacity:1;isolation:auto;mix-blend-mode:normal;color-interpolation:sRGB;color-interpolation-filters:linearRGB;solid-color:#000000;solid-opacity:1;fill:#b19381;fill-opacity:1;fill-rule:nonzero;stroke:none;stroke-width:4;stroke-linecap:round;stroke-linejoin:round;stroke-miterlimit:4;stroke-dasharray:none;stroke-dashoffset:0;stroke-opacity:1;color-rendering:auto;image-rendering:auto;shape-rendering:auto;text-rendering:auto;enable-background:accumulate"
           d="m 437.49414,310.38867 c -9.20444,1.74862 -13.00811,11.61691 -13.04883,20.03711 -1.30649,3.87039 2.98022,7.63473 6.24805,4.51367 5.39726,-3.36933 12.1193,-7.84716 10.87891,-15.21679 -0.17776,-3.04251 0.34052,-9.23427 -4.07813,-9.33399 z"
           id="path5562"
           inkscape:connector-curvature="0" />
        <path
           style="color:#000000;clip-rule:nonzero;display:inline;overflow:visible;visibility:visible;opacity:1;isolation:auto;mix-blend-mode:normal;color-interpolation:sRGB;color-interpolation-filters:linearRGB;solid-color:#000000;solid-opacity:1;fill:#b19381;fill-opacity:1;fill-rule:nonzero;stroke:none;stroke-width:4;stroke-linecap:round;stroke-linejoin:round;stroke-miterlimit:4;stroke-dasharray:none;stroke-dashoffset:0;stroke-opacity:1;color-rendering:auto;image-rendering:auto;shape-rendering:auto;text-rendering:auto;enable-background:accumulate"
           d="m 437.2168,332.10938 c -7.7987,1.65387 -14.26267,9.36851 -12.71886,17.59368 -0.68287,3.22626 0.64644,9.40923 5.15245,7.10163 7.18393,-3.65667 13.16866,-10.84134 11.58984,-19.38281 0.002,-2.3715 -1.05028,-5.64783 -4.02343,-5.3125 z"
           id="path5564"
           inkscape:connector-curvature="0" />
        <path
           style="color:#000000;clip-rule:nonzero;display:inline;overflow:visible;visibility:visible;opacity:1;isolation:auto;mix-blend-mode:normal;color-interpolation:sRGB;color-interpolation-filters:linearRGB;solid-color:#000000;solid-opacity:1;fill:#b19381;fill-opacity:1;fill-rule:nonzero;stroke:none;stroke-width:4;stroke-linecap:round;stroke-linejoin:round;stroke-miterlimit:4;stroke-dasharray:none;stroke-dashoffset:0;stroke-opacity:1;color-rendering:auto;image-rendering:auto;shape-rendering:auto;text-rendering:auto;enable-background:accumulate"
           d="m 434.64844,354.46094 c -8.94562,2.29639 -11.38835,12.89963 -10.28321,21.00195 -0.578,3.31073 1.95601,8.69933 5.80469,5.70508 5.42968,-2.26888 9.67407,-6.69696 9.95899,-12.80469 1.08475,-5.01897 1.42695,-13.25861 -5.48047,-13.90234 z"
           id="path5566"
           inkscape:connector-curvature="0" />
        <path
           style="color:#000000;clip-rule:nonzero;display:inline;overflow:visible;visibility:visible;opacity:1;isolation:auto;mix-blend-mode:normal;color-interpolation:sRGB;color-interpolation-filters:linearRGB;solid-color:#000000;solid-opacity:1;fill:#b19381;fill-opacity:1;fill-rule:nonzero;stroke:none;stroke-width:4;stroke-linecap:round;stroke-linejoin:round;stroke-miterlimit:4;stroke-dasharray:none;stroke-dashoffset:0;stroke-opacity:1;color-rendering:auto;image-rendering:auto;shape-rendering:auto;text-rendering:auto;enable-background:accumulate"
           d="m 436.47266,378.15234 c -5.6956,1.69313 -10.63174,7.41001 -12.03618,12.87885 0.8576,3.38787 -1.2784,11.6901 4.49321,11.02936 5.32637,-2.17236 12.46166,-5.65818 11.10547,-12.67383 -0.79742,-3.22538 1.75272,-11.04516 -3.5625,-11.23438 z"
           id="path5568"
           inkscape:connector-curvature="0" />
        <path
           style="color:#000000;clip-rule:nonzero;display:inline;overflow:visible;visibility:visible;opacity:1;isolation:auto;mix-blend-mode:normal;color-interpolation:sRGB;color-interpolation-filters:linearRGB;solid-color:#000000;solid-opacity:1;fill:#b19381;fill-opacity:1;fill-rule:nonzero;stroke:none;stroke-width:4;stroke-linecap:round;stroke-linejoin:round;stroke-miterlimit:4;stroke-dasharray:none;stroke-dashoffset:0;stroke-opacity:1;color-rendering:auto;image-rendering:auto;shape-rendering:auto;text-rendering:auto;enable-background:accumulate"
           d="m 435.9375,398.87109 c -6.38617,1.77947 -12.58288,7.29472 -11.66959,14.54652 -0.10337,3.59038 -1.52202,11.27717 4.02897,10.87731 5.73739,-1.89948 12.15489,-6.04267 11.19921,-13.03906 -0.69885,-3.52569 1.97658,-12.09693 -3.55859,-12.38477 z"
           id="path5570"
           inkscape:connector-curvature="0" />
        <path
           style="color:#000000;clip-rule:nonzero;display:inline;overflow:visible;visibility:visible;opacity:1;isolation:auto;mix-blend-mode:normal;color-interpolation:sRGB;color-interpolation-filters:linearRGB;solid-color:#000000;solid-opacity:1;fill:#b19381;fill-opacity:1;fill-rule:nonzero;stroke:none;stroke-width:4;stroke-linecap:round;stroke-linejoin:round;stroke-miterlimit:4;stroke-dasharray:none;stroke-dashoffset:0;stroke-opacity:1;color-rendering:auto;image-rendering:auto;shape-rendering:auto;text-rendering:auto;enable-background:accumulate"
           d="m 434.43359,421.57812 c -9.51286,2.91613 -11.63067,14.95026 -9.98632,23.56446 1.77127,5.77103 8.53533,1.64641 11,-1.36719 4.62752,-5.39691 6.27141,-14.16123 3.15039,-20.57812 -0.99527,-1.22642 -2.63074,-1.71341 -4.16407,-1.61915 z"
           id="path5572"
           inkscape:connector-curvature="0" />
      </g>
      <path
         sodipodi:nodetypes="sssssscssscsssssssssssssscsssssscccsssssssssssssscssssssscsscssssssssssssssssssscssscssssssssssssssssssssscsssssscssssssssssssssssssss"
         inkscape:connector-curvature="0"
         id="path5554"
         d="m 427.71084,448.95562 c -3.96255,0.67061 -5.57178,0.81739 -5.85494,0.53402 -0.563,-0.5634 -0.50146,-12.38565 0.0806,-15.48447 0.25568,-1.36122 0.792,-3.193 1.19179,-4.0706 0.70811,-1.55442 0.71106,-1.65629 0.11394,-3.94162 -1.41864,-5.42948 -1.52243,-11.37486 -0.29108,-16.67442 0.55671,-2.39599 0.55675,-2.68598 5e-4,-4.40778 -0.7829,-2.42414 -0.81164,-10.76467 -0.0521,-15.12026 0.54139,-3.1046 0.54012,-3.1234 -0.3946,-5.83153 -1.7489,-5.06702 -1.52079,-13.18234 0.60197,-21.41519 l 1.06427,-4.12768 -0.74532,-1.94766 c -1.03588,-2.7069 -1.46021,-7.85842 -1.04234,-12.65423 0.18877,-2.1666 0.43484,-4.23171 0.54681,-4.58913 0.11196,-0.35743 -0.0794,-2.71979 -0.42514,-5.24965 -0.55165,-4.03605 -0.57701,-5.24524 -0.20695,-9.8662 0.54589,-6.81664 0.52337,-8.80373 -0.12394,-10.93758 -0.65469,-2.15808 -0.66413,-7.27639 -0.0201,-10.87791 0.40187,-2.24721 0.39376,-3.24219 -0.0537,-6.59482 -0.73335,-5.49507 -0.45327,-13.04668 0.60802,-16.3931 0.83934,-2.64658 0.82327,-3.39807 -0.16461,-7.69617 -0.62636,-2.72523 -0.62336,-4.53944 0.0266,-16.04144 0.1451,-2.56741 0.0327,-5.00643 -0.35781,-7.76564 -0.7123,-5.0327 -0.7233,-8.60437 -0.0346,-11.24837 0.85611,-3.28682 -1.01001,-7.0088 3.56478,-7.0088 l 4.81244,0 -1.46186,1.46186 c -0.80402,0.80401 -1.77693,2.17412 -2.16202,3.04468 -1.37405,3.10629 -1.69097,12.2502 -0.48188,13.90373 0.44387,0.60701 0.54833,0.61155 1.67827,0.0727 1.96188,-0.93554 6.60735,-4.8134 7.94692,-6.63376 1.89029,-2.56872 2.73672,-5.12602 2.94851,-8.90827 l 0.18464,-3.29742 1.82547,0 1.82547,0 -0.11168,4.1886 c -0.0614,2.30374 -0.26003,4.64488 -0.44133,5.20255 -0.37871,1.16493 -0.1271,11.61762 0.40035,16.63165 0.3172,3.01525 0.27641,3.65998 -0.37192,5.88072 -0.8819,3.02078 -0.90117,4.20305 -0.13803,8.46732 0.84941,4.74635 0.86865,13.22474 0.0337,14.8487 -0.78085,1.51871 -0.79689,3.82726 -0.0427,6.13338 0.79291,2.4242 0.54221,11.91049 -0.40229,15.2223 -0.53987,1.89297 -0.57266,2.4584 -0.20682,3.56477 1.06043,3.20691 1.46668,5.1194 1.8201,8.56852 0.42929,4.18938 0.0134,9.3964 -0.93129,11.65711 -0.53511,1.28068 -0.52938,1.51951 0.0846,3.5299 0.50453,1.65196 0.65229,3.24021 0.63178,6.7905 -0.0232,4.0042 -0.17838,5.20587 -1.14184,8.83938 l -1.11505,4.20516 0.78536,2.38965 c 1.08303,3.29538 1.13891,12.3538 0.10232,16.58493 -0.67022,2.73567 -0.67047,2.8394 -0.0129,5.52538 0.53189,2.1728 0.6657,4.02403 0.64872,8.97571 -0.0199,5.82864 -0.0855,6.42827 -0.99829,9.12989 -0.95901,2.83865 -0.96615,2.92317 -0.3899,4.62048 1.32003,3.88804 1.0385,14.14991 -0.48574,17.70582 l -0.7198,1.67921 0.78578,1.70174 c 0.75601,1.63725 0.78632,2.12495 0.80021,12.8725 l 0.0144,11.17075 -1.3462,0.68677 c -0.7404,0.37773 -2.05994,0.75368 -2.9323,0.83545 -1.47932,0.1387 -6.46195,1.64922 -9.46739,2.15787 z m 2.6858,-3.42551 c 3.05401,-1.92212 4.78585,-3.53396 5.66845,-5.2757 1.4901,-2.94056 2.10411,-5.92906 2.13042,-10.3691 0.0208,-3.51589 -0.0797,-4.27709 -0.706,-5.34714 -1.35687,-2.31817 -4.21601,-1.65812 -7.35526,1.69801 -2.08104,2.22479 -3.01145,4.04439 -3.67084,7.17901 -1.2077,5.74118 -1.12275,10.60777 0.21485,12.30825 0.9348,1.18842 1.5759,1.15509 3.71838,-0.19333 z m 0.90478,-24.57938 c 5.80449,-2.90533 6.45824,-4.117 6.67308,-12.36807 0.15933,-6.11872 -0.10817,-7.70467 -1.35454,-8.03059 -0.96751,-0.25302 -3.04412,0.81125 -6.27589,3.21638 -3.86827,2.87883 -4.08333,3.43545 -4.33418,11.21763 -0.16808,5.21425 -0.11656,6.06968 0.41431,6.87988 0.7164,1.09339 0.95296,1.049 4.87722,-0.91523 z m 0.55333,-22.29306 c 6.53153,-3.50348 6.67892,-3.76215 6.68206,-11.7278 0.002,-5.49327 -0.34122,-7.30778 -1.38301,-7.30778 -0.75783,0 -4.4178,2.05515 -5.65746,3.17676 -0.56092,0.50751 -1.98651,2.35287 -3.16799,4.10083 l -2.14815,3.1781 0.24575,4.42299 c 0.25152,4.52707 0.59647,6.15346 1.30513,6.15346 0.22082,0 2.07647,-0.89846 4.12367,-1.99656 z m -1.60238,-19.60742 c 1.04903,-0.70663 2.54898,-1.60702 3.33323,-2.00085 2.94868,-1.48074 3.47895,-2.46954 4.80669,-8.96292 1.20485,-5.89245 0.82928,-9.05607 -1.29671,-10.92272 -1.41946,-1.24629 -1.91309,-1.29292 -3.941,-0.37231 -3.18699,1.44682 -5.93725,5.29685 -6.8359,9.56943 -0.7761,3.68987 -0.33044,12.23146 0.70315,13.47686 0.62002,0.74708 1.14093,0.6201 3.23054,-0.78749 z m 0.43615,-24.87969 c 3.30046,-2.36879 6.54401,-5.44926 7.55598,-7.17608 1.66789,-2.84602 1.89521,-11.72403 0.32953,-12.8689 -0.95655,-0.69945 -1.20508,-0.64628 -4.35964,0.93262 -3.34339,1.67343 -5.74677,4.04212 -7.15943,7.05611 -0.87651,1.8701 -0.95537,2.40615 -0.95537,6.49431 0,5.05061 0.4886,7.12953 1.67564,7.12953 0.40104,0 1.71202,-0.70541 2.91329,-1.56759 z m -1.45205,-20.40406 c 2.19323,-1.12088 6.29746,-4.13633 7.69832,-5.65607 2.5529,-2.76956 3.06777,-4.14687 3.06466,-8.19819 -0.003,-4.23807 -0.82477,-7.48286 -1.98798,-7.85204 -1.07124,-0.34 -7.26217,3.472 -8.36425,5.15018 -1.63744,2.49341 -3.08589,7.7062 -3.28327,11.81601 -0.24912,5.18726 0.28216,6.06395 2.87252,4.74011 z m 2.00809,-22.48432 c 1.22072,-0.58795 3.07807,-2.06444 5.02408,-3.99386 l 3.08739,-3.06105 -0.29781,-5.0842 c -0.30657,-5.23378 -0.84385,-7.39 -1.94685,-7.81326 -0.34668,-0.13299 -1.26152,0.1153 -2.1384,0.5805 -5.56738,2.95347 -8.80213,8.86566 -8.8503,16.17577 -0.0205,3.1053 0.0577,3.56172 0.68988,4.02626 0.84778,0.62301 1.77581,0.44919 4.43201,-0.83016 z m -0.12626,-20.8592 c 6.11184,-4.2641 6.98932,-5.68467 7.6002,-12.30427 0.37846,-4.101 0.0873,-5.82656 -1.12658,-6.67679 -1.01418,-0.71036 -1.90366,-0.67817 -3.64984,0.13201 -3.01088,1.39706 -4.87805,3.96151 -6.81438,9.35919 -1.12031,3.12295 -1.32593,4.15204 -1.34233,6.71793 -0.0374,5.84642 0.51477,6.13341 5.33293,2.77189 z m -1.31934,-19.79218 c 5.74058,-3.39598 8.21647,-6.40307 8.97509,-10.90068 0.43346,-2.56989 0.30215,-11.21533 -0.18868,-12.42245 -0.64147,-1.57758 -1.77609,-1.136 -6.5388,2.54487 -5.40529,4.17749 -6.11058,5.91738 -6.11965,15.0966 -0.005,5.50859 0.24685,7.01698 1.17363,7.01698 0.24264,0 1.45692,-0.60089 2.69841,-1.33532 z"
         style="color:#000000;clip-rule:nonzero;display:inline;overflow:visible;visibility:visible;opacity:1;isolation:auto;mix-blend-mode:normal;color-interpolation:sRGB;color-interpolation-filters:linearRGB;solid-color:#000000;solid-opacity:1;fill:#000000;fill-opacity:1;fill-rule:nonzero;stroke:none;stroke-width:2.60166097;stroke-linecap:round;stroke-linejoin:round;stroke-miterlimit:4;stroke-dasharray:none;stroke-dashoffset:0;stroke-opacity:1;color-rendering:auto;image-rendering:auto;shape-rendering:auto;text-rendering:auto;enable-background:accumulate" />
    </g>
    <path
       style="color:#000000;clip-rule:nonzero;display:inline;overflow:visible;visibility:visible;opacity:1;isolation:auto;mix-blend-mode:normal;color-interpolation:sRGB;color-interpolation-filters:linearRGB;solid-color:#000000;solid-opacity:1;fill:#776b65;fill-opacity:1;fill-rule:nonzero;stroke:#000000;stroke-width:4;stroke-linecap:round;stroke-linejoin:round;stroke-miterlimit:4;stroke-dasharray:none;stroke-dashoffset:0;stroke-opacity:1;color-rendering:auto;image-rendering:auto;shape-rendering:auto;text-rendering:auto;enable-background:accumulate"
       d="m 225.45414,167.04846 c -1.1506,21.92617 -0.1625,44.23964 -0.4922,66.31446 0,56.90429 0,113.80859 0,170.71289 3.0744,4.03123 10.748,1.47235 15.4103,1.58611 2.5317,-5.22702 0.3732,-12.5628 1.0897,-18.58611 0,-72.9043 0,-145.8086 0,-218.7129 -3.0744,-4.03123 -10.748,-1.47235 -15.4103,-1.58611 l -0.5975,0.27166 z"
       id="path4854"
       inkscape:connector-curvature="0" />
    <path
       style="color:#000000;clip-rule:nonzero;display:inline;overflow:visible;visibility:visible;opacity:1;isolation:auto;mix-blend-mode:normal;color-interpolation:sRGB;color-interpolation-filters:linearRGB;solid-color:#000000;solid-opacity:1;fill:#776b65;fill-opacity:1;fill-rule:nonzero;stroke:#000000;stroke-width:4;stroke-linecap:round;stroke-linejoin:round;stroke-miterlimit:4;stroke-dasharray:none;stroke-dashoffset:0;stroke-opacity:1;color-rendering:auto;image-rendering:auto;shape-rendering:auto;text-rendering:auto;enable-background:accumulate"
       d="m 644.41678,175.5481 c 1.1507,21.92617 0.1625,44.23964 0.4922,66.31445 0,56.9043 0,113.8086 0,170.71289 -3.0744,4.03124 -10.748,1.47236 -15.4103,1.58611 -2.5316,-5.22701 -0.3732,-12.56279 -1.0897,-18.58611 0,-72.90429 0,-145.80859 0,-218.71289 3.0744,-4.03123 10.7481,-1.47235 15.4104,-1.58611 l 0.5974,0.27166 z"
       id="path4864"
       inkscape:connector-curvature="0" />
    <path
       style="color:#000000;clip-rule:nonzero;display:inline;overflow:visible;visibility:visible;opacity:1;isolation:auto;mix-blend-mode:normal;color-interpolation:sRGB;color-interpolation-filters:linearRGB;solid-color:#000000;solid-opacity:1;fill:#645b56;fill-opacity:1;fill-rule:nonzero;stroke:#000000;stroke-width:4;stroke-linecap:round;stroke-linejoin:round;stroke-miterlimit:4;stroke-dasharray:none;stroke-dashoffset:0;stroke-opacity:1;color-rendering:auto;image-rendering:auto;shape-rendering:auto;text-rendering:auto;enable-background:accumulate"
       d="m 250.11034,148.66565 c -3.3522,6.67526 -8.9071,13.39343 -11.3183,19.86718 -0.4247,78.48445 -0.241,156.97161 -0.168,235.45704 2.9055,5.10731 5.709,-2.58668 7.1836,-5.26563 3.3281,-7.03149 10.0244,-13.08997 8.1489,-21.52734 -0.058,-75.81185 -0.1162,-151.6237 -0.1743,-227.43555 -0.2786,-1.93023 -2.3944,-2.53788 -3.6719,-1.0957 z"
       id="path4856"
       inkscape:connector-curvature="0" />
    <path
       style="color:#000000;clip-rule:nonzero;display:inline;overflow:visible;visibility:visible;opacity:1;isolation:auto;mix-blend-mode:normal;color-interpolation:sRGB;color-interpolation-filters:linearRGB;solid-color:#000000;solid-opacity:1;fill:#645b56;fill-opacity:1;fill-rule:nonzero;stroke:#000000;stroke-width:4;stroke-linecap:round;stroke-linejoin:round;stroke-miterlimit:4;stroke-dasharray:none;stroke-dashoffset:0;stroke-opacity:1;color-rendering:auto;image-rendering:auto;shape-rendering:auto;text-rendering:auto;enable-background:accumulate"
       d="m 619.75858,157.16529 c 3.3522,6.67526 8.9072,13.39343 11.3184,19.86718 0.4282,78.48379 0.237,156.9703 0.1699,235.45508 -2.9018,5.11028 -5.7136,-2.58469 -7.1855,-5.26562 -3.3344,-7.02957 -10.0208,-13.08912 -8.149,-21.52539 0.058,-75.81185 0.1163,-151.6237 0.1744,-227.43555 0.2786,-1.93023 2.3943,-2.53788 3.6718,-1.0957 z"
       id="path4866"
       inkscape:connector-curvature="0" />
    <g
       id="g8630">
      <path
         inkscape:connector-curvature="0"
         id="path4426-3-9-5"
         d="M 238.94395,73.788865 C 209.0956,148.4679 180.24896,223.57032 149.74389,297.97179 c -6.4102,8.41436 1.07487,7.50817 7.83719,7.0883 185.47146,0 370.94293,0 556.41438,0 -31.9874,-77.07472 -61.65375,-155.17385 -92.73959,-232.647257 -127.25608,0 -254.51218,0 -381.76826,0 l -0.40231,1.018249 -0.14135,0.357783 z"
         style="color:#000000;clip-rule:nonzero;display:inline;overflow:visible;visibility:visible;opacity:1;isolation:auto;mix-blend-mode:normal;color-interpolation:sRGB;color-interpolation-filters:linearRGB;solid-color:#000000;solid-opacity:1;fill:#514a46;fill-opacity:1;fill-rule:evenodd;stroke:none;stroke-width:5.39440966;stroke-linecap:butt;stroke-linejoin:miter;stroke-miterlimit:4;stroke-dasharray:none;stroke-dashoffset:0;stroke-opacity:1;color-rendering:auto;image-rendering:auto;shape-rendering:auto;text-rendering:auto;enable-background:accumulate" />
      <g
         id="g8610">
        <path
           style="color:#000000;clip-rule:nonzero;display:inline;overflow:visible;visibility:visible;opacity:1;isolation:auto;mix-blend-mode:normal;color-interpolation:sRGB;color-interpolation-filters:linearRGB;solid-color:#000000;solid-opacity:1;fill:#5e524c;fill-opacity:1;fill-rule:nonzero;stroke:#000000;stroke-width:4.31552744;stroke-linecap:round;stroke-linejoin:round;stroke-miterlimit:4;stroke-dasharray:none;stroke-dashoffset:0;stroke-opacity:1;color-rendering:auto;image-rendering:auto;shape-rendering:auto;text-rendering:auto;enable-background:accumulate"
           d="m 240.79102,75.260602 c -4.66831,3.898868 -5.1479,11.642778 -8.17425,17.037124 -6.25601,16.542294 -13.81651,32.728404 -19.21833,49.521464 0.82423,6.00891 8.97597,4.4185 13.32805,4.84468 16.0929,-0.376 32.43442,-0.31159 48.34872,-1.66075 4.63175,-10.77526 6.86994,-23.27259 10.54568,-34.72756 2.47687,-10.539686 6.78452,-20.999107 7.83028,-31.706364 -4.37566,-3.980497 -11.55337,-2.244207 -17.04509,-3.178108 -11.86606,-0.368505 -23.74513,-0.06545 -35.61506,-0.130486 z"
           id="path4618-7-0"
           inkscape:connector-curvature="0" />
        <path
           style="color:#000000;clip-rule:nonzero;display:inline;overflow:visible;visibility:visible;opacity:1;isolation:auto;mix-blend-mode:normal;color-interpolation:sRGB;color-interpolation-filters:linearRGB;solid-color:#000000;solid-opacity:1;fill:#776b65;fill-opacity:1;fill-rule:nonzero;stroke:#000000;stroke-width:4.31552744;stroke-linecap:round;stroke-linejoin:round;stroke-miterlimit:4;stroke-dasharray:none;stroke-dashoffset:0;stroke-opacity:1;color-rendering:auto;image-rendering:auto;shape-rendering:auto;text-rendering:auto;enable-background:accumulate"
           d="m 305.52734,75.178571 c -4.45025,3.717691 -3.85279,11.518122 -6.27448,16.854168 -4.74098,17.808271 -10.62409,35.544401 -14.66161,53.396261 3.92934,3.57263 11.47179,0.56855 16.77398,1.55621 15.43799,-0.2802 31.11869,0.55981 46.40642,-0.41389 3.06538,-6.29091 2.73224,-14.65426 4.45386,-21.72937 2.05213,-14.90498 5.24345,-29.810209 5.99519,-44.81377 -3.21968,-5.431772 -11.14792,-3.836468 -16.49346,-4.677353 -12.06157,-0.356053 -24.13467,-0.09475 -36.1999,-0.172256 z"
           id="path4620-6-9"
           inkscape:connector-curvature="0" />
        <path
           style="color:#000000;clip-rule:nonzero;display:inline;overflow:visible;visibility:visible;opacity:1;isolation:auto;mix-blend-mode:normal;color-interpolation:sRGB;color-interpolation-filters:linearRGB;solid-color:#000000;solid-opacity:1;fill:#716b6b;fill-opacity:1;fill-rule:nonzero;stroke:#000000;stroke-width:4.31552744;stroke-linecap:round;stroke-linejoin:round;stroke-miterlimit:4;stroke-dasharray:none;stroke-dashoffset:0;stroke-opacity:1;color-rendering:auto;image-rendering:auto;shape-rendering:auto;text-rendering:auto;enable-background:accumulate"
           d="m 368.05664,75.856305 c -4.25594,22.76612 -7.08706,45.940705 -11.24219,68.792965 2.60005,5.06558 11.0447,1.0656 15.97071,2.33594 18.43988,-0.28045 37.12226,0.55829 55.41228,-0.41389 2.53162,-5.22701 0.37319,-12.56279 1.08967,-18.58611 -0.27581,-17.21173 0.55198,-34.662559 -0.41389,-51.724778 -5.22702,-2.531628 -12.5628,-0.373189 -18.58611,-1.089673 -14.01587,0.451209 -28.4676,-0.90763 -42.23047,0.685546 z"
           id="path4622-7-6"
           inkscape:connector-curvature="0" />
        <path
           style="color:#000000;clip-rule:nonzero;display:inline;overflow:visible;visibility:visible;opacity:1;isolation:auto;mix-blend-mode:normal;color-interpolation:sRGB;color-interpolation-filters:linearRGB;solid-color:#000000;solid-opacity:1;fill:#847c7c;fill-opacity:1;fill-rule:nonzero;stroke:#000000;stroke-width:4.31552744;stroke-linecap:round;stroke-linejoin:round;stroke-miterlimit:4;stroke-dasharray:none;stroke-dashoffset:0;stroke-opacity:1;color-rendering:auto;image-rendering:auto;shape-rendering:auto;text-rendering:auto;enable-background:accumulate"
           d="m 477.50977,75.084821 c -13.09452,0.572908 -26.55715,-0.830679 -39.40039,0.771484 -1.1505,21.894943 -0.16222,44.177185 -0.49219,66.220705 -1.28971,8.14655 9.29704,3.86296 14,4.9082 15.75924,-0.63237 31.72298,1.27413 47.36523,-0.99219 8.54491,-1.55416 8.06611,-11.86078 6.75196,-18.38476 -2.94776,-14.99929 -3.63123,-30.502082 -8.12305,-45.140627 -3.03501,-8.302709 -13.00714,-7.348142 -20.10156,-7.382812 z"
           id="path4624-3-3"
           inkscape:connector-curvature="0" />
        <path
           style="color:#000000;clip-rule:nonzero;display:inline;overflow:visible;visibility:visible;opacity:1;isolation:auto;mix-blend-mode:normal;color-interpolation:sRGB;color-interpolation-filters:linearRGB;solid-color:#000000;solid-opacity:1;fill:#5e524c;fill-opacity:1;fill-rule:nonzero;stroke:#000000;stroke-width:4.31552744;stroke-linecap:round;stroke-linejoin:round;stroke-miterlimit:4;stroke-dasharray:none;stroke-dashoffset:0;stroke-opacity:1;color-rendering:auto;image-rendering:auto;shape-rendering:auto;text-rendering:auto;enable-background:accumulate"
           d="m 529.22656,75.176618 c -7.18208,0.754172 -15.68668,-1.426846 -21.9707,2.867187 -2.57027,4.536399 1.39613,9.866363 1.13796,14.728833 3.06747,17.677902 4.39431,35.823272 7.70728,53.321062 6.40427,2.129 14.4433,0.26333 21.45359,0.89151 13.7743,-0.20867 27.64283,0.45589 41.35937,-0.83594 3.25909,-3.63163 -1.43738,-9.17008 -1.6457,-13.49782 -5.34633,-18.66431 -10.47703,-37.455362 -15.95,-56.045145 -7.71821,-2.410079 -16.48724,-0.806292 -24.58202,-1.425812 -2.50327,-0.01289 -5.0065,-0.009 -7.50978,-0.0039 z"
           id="path4626-6-8"
           inkscape:connector-curvature="0" />
        <path
           style="color:#000000;clip-rule:nonzero;display:inline;overflow:visible;visibility:visible;opacity:1;isolation:auto;mix-blend-mode:normal;color-interpolation:sRGB;color-interpolation-filters:linearRGB;solid-color:#000000;solid-opacity:1;fill:#776b65;fill-opacity:1;fill-rule:nonzero;stroke:#000000;stroke-width:4.31552744;stroke-linecap:round;stroke-linejoin:round;stroke-miterlimit:4;stroke-dasharray:none;stroke-dashoffset:0;stroke-opacity:1;color-rendering:auto;image-rendering:auto;shape-rendering:auto;text-rendering:auto;enable-background:accumulate"
           d="m 592.67969,75.182477 c -6.92071,0.784691 -15.46986,-1.327672 -21.2461,3.34375 -1.54852,4.837337 2.6772,9.7533 3.17188,14.617188 5.44817,17.598695 9.68508,35.825775 15.61897,53.149795 10.62433,1.59166 22.32728,0.26532 33.37712,0.68614 7.40103,-0.73895 15.96044,1.37508 22.59961,-2.64453 3.21762,-5.27548 -2.86777,-11.06478 -3.69411,-16.33808 -7.04081,-17.35923 -13.23526,-35.305483 -20.91807,-52.252854 -9.13504,-1.315647 -19.44029,-0.228428 -28.9093,-0.561409 z"
           id="path4628-5-5"
           inkscape:connector-curvature="0" />
        <path
           style="color:#000000;clip-rule:nonzero;display:inline;overflow:visible;visibility:visible;opacity:1;isolation:auto;mix-blend-mode:normal;color-interpolation:sRGB;color-interpolation-filters:linearRGB;solid-color:#000000;solid-opacity:1;fill:#847c7c;fill-opacity:1;fill-rule:nonzero;stroke:#000000;stroke-width:4.31552744;stroke-linecap:round;stroke-linejoin:round;stroke-miterlimit:4;stroke-dasharray:none;stroke-dashoffset:0;stroke-opacity:1;color-rendering:auto;image-rendering:auto;shape-rendering:auto;text-rendering:auto;enable-background:accumulate"
           d="m 612.52344,155.7899 c -5.64121,0.77448 -13.53574,-1.26781 -17.52344,3.71875 0.91707,11.10925 5.33812,21.89211 7.87891,32.7793 3.41105,10.66601 5.49804,22.00152 10.22265,32.1289 9.4795,3.31291 20.10995,2.0137 30.04871,2.69007 12.5916,-0.36244 25.55764,0.89203 37.90051,-0.66077 0.0651,-6.69674 -4.88143,-13.10732 -6.73581,-19.69076 -6.87345,-16.36572 -12.80956,-33.36661 -20.26887,-49.33557 -13.44028,-1.53505 -27.75252,-1.30938 -41.52266,-1.62992 z"
           id="path4630-6-6"
           inkscape:connector-curvature="0" />
        <path
           style="color:#000000;clip-rule:nonzero;display:inline;overflow:visible;visibility:visible;opacity:1;isolation:auto;mix-blend-mode:normal;color-interpolation:sRGB;color-interpolation-filters:linearRGB;solid-color:#000000;solid-opacity:1;fill:#776b65;fill-opacity:1;fill-rule:nonzero;stroke:#000000;stroke-width:4.31552744;stroke-linecap:round;stroke-linejoin:round;stroke-miterlimit:4;stroke-dasharray:none;stroke-dashoffset:0;stroke-opacity:1;color-rendering:auto;image-rendering:auto;shape-rendering:auto;text-rendering:auto;enable-background:accumulate"
           d="m 638.37891,232.90709 c -7.01696,0.72502 -15.12498,-1.02894 -21.48243,2.41796 -0.98506,5.95601 2.70451,12.14891 3.62085,18.1286 4.53823,15.58161 8.045,31.65005 13.74439,46.79328 7.5736,4.75995 17.44102,2.95224 25.99414,3.83203 17.10013,-0.0199 34.43184,0.60523 51.38103,-0.29866 2.43461,-4.35313 -3.2425,-10.02527 -4.09956,-14.83268 -7.64657,-18.09015 -14.42244,-36.79308 -22.68528,-54.47022 -15.06959,-1.51392 -31.07853,-1.26458 -46.47314,-1.57031 z"
           id="path4632-3-1"
           inkscape:connector-curvature="0" />
        <path
           style="color:#000000;clip-rule:nonzero;display:inline;overflow:visible;visibility:visible;opacity:1;isolation:auto;mix-blend-mode:normal;color-interpolation:sRGB;color-interpolation-filters:linearRGB;solid-color:#000000;solid-opacity:1;fill:#5e524c;fill-opacity:1;fill-rule:nonzero;stroke:#000000;stroke-width:4.31552744;stroke-linecap:round;stroke-linejoin:round;stroke-miterlimit:4;stroke-dasharray:none;stroke-dashoffset:0;stroke-opacity:1;color-rendering:auto;image-rendering:auto;shape-rendering:auto;text-rendering:auto;enable-background:accumulate"
           d="m 563.80664,232.38951 c -10.61182,0.68738 -22.00979,-1.08639 -32.05469,2.95898 -3.75539,3.95828 0.20292,10.23785 -0.0599,15.03794 2.62706,16.90704 5.30802,34.01865 8.05207,50.76089 6.11213,3.37706 14.03449,1.7446 20.81777,2.68274 21.4618,0.42514 43.16471,0.7773 64.48123,-0.0498 2.36538,-4.75711 -2.63929,-11.18326 -3.16034,-16.55091 -5.49476,-17.922 -9.80038,-36.35098 -15.23107,-54.12821 -10.2312,-1.68274 -21.6301,-0.24498 -32.30993,-0.72339 -3.51173,-0.002 -7.02344,-8e-5 -10.53516,0.0117 z"
           id="path4634-9-1"
           inkscape:connector-curvature="0" />
        <path
           style="color:#000000;clip-rule:nonzero;display:inline;overflow:visible;visibility:visible;opacity:1;isolation:auto;mix-blend-mode:normal;color-interpolation:sRGB;color-interpolation-filters:linearRGB;solid-color:#000000;solid-opacity:1;fill:#716b6b;fill-opacity:1;fill-rule:nonzero;stroke:#000000;stroke-width:4.31552744;stroke-linecap:round;stroke-linejoin:round;stroke-miterlimit:4;stroke-dasharray:none;stroke-dashoffset:0;stroke-opacity:1;color-rendering:auto;image-rendering:auto;shape-rendering:auto;text-rendering:auto;enable-background:accumulate"
           d="m 530.95312,155.57896 c -4.45346,0.14624 -13.1744,-0.65993 -12.80664,5.96094 4.3664,21.34719 6.31244,43.40833 10.41409,64.71725 6.4183,2.09277 14.43244,0.25524 21.44138,0.87454 15.00653,-0.75641 30.34844,1.59695 45.15821,-1.3457 8.46914,-2.54066 5.98444,-13.01372 4.06432,-19.29128 -4.99762,-16.30025 -9.37727,-33.03043 -15.07422,-48.96535 -11.89089,-1.80954 -24.83122,-0.92062 -37.13131,-1.66057 -5.35427,-0.13905 -10.70915,-0.3039 -16.06583,-0.28983 z"
           id="path4636-4-5"
           inkscape:connector-curvature="0" />
        <path
           style="color:#000000;clip-rule:nonzero;display:inline;overflow:visible;visibility:visible;opacity:1;isolation:auto;mix-blend-mode:normal;color-interpolation:sRGB;color-interpolation-filters:linearRGB;solid-color:#000000;solid-opacity:1;fill:#776b65;fill-opacity:1;fill-rule:nonzero;stroke:#000000;stroke-width:4.31552744;stroke-linecap:round;stroke-linejoin:round;stroke-miterlimit:4;stroke-dasharray:none;stroke-dashoffset:0;stroke-opacity:1;color-rendering:auto;image-rendering:auto;shape-rendering:auto;text-rendering:auto;enable-background:accumulate"
           d="m 438.10938,156.00084 c -1.1505,21.89559 -0.16222,44.17848 -0.49219,66.22265 -1.28971,8.14656 9.29704,3.86297 14,4.9082 20.32374,-0.5149 40.80974,1.12261 61.03711,-1.23828 6.10774,-0.30527 6.92755,-7.01737 5.55064,-11.69781 -2.63409,-19.42704 -4.92634,-39.2217 -9.89125,-58.09051 -7.15269,-1.90541 -15.70423,-0.21898 -23.37228,-0.7898 -15.38162,0.27596 -31.00289,-0.5542 -46.23455,0.41389 l -0.59748,0.27166 z"
           id="path4638-8-9"
           inkscape:connector-curvature="0" />
        <path
           style="color:#000000;clip-rule:nonzero;display:inline;overflow:visible;visibility:visible;opacity:1;isolation:auto;mix-blend-mode:normal;color-interpolation:sRGB;color-interpolation-filters:linearRGB;solid-color:#000000;solid-opacity:1;fill:#847c7c;fill-opacity:1;fill-rule:nonzero;stroke:#000000;stroke-width:4.31552744;stroke-linecap:round;stroke-linejoin:round;stroke-miterlimit:4;stroke-dasharray:none;stroke-dashoffset:0;stroke-opacity:1;color-rendering:auto;image-rendering:auto;shape-rendering:auto;text-rendering:auto;enable-background:accumulate"
           d="m 438.10938,233.06334 c -1.1505,21.89559 -0.16222,44.17848 -0.49219,66.22265 -1.28971,8.14656 9.29704,3.86297 14,4.9082 25.76867,-0.50171 51.77201,1.27061 77.38281,-2.03906 4.2239,-2.17881 0.30761,-8.17635 0.7068,-11.83511 -2.79677,-18.26218 -5.37972,-36.78071 -8.28883,-54.86997 -5.90438,-3.40387 -13.68094,-1.76928 -20.2826,-2.70863 -20.77708,-0.42005 -41.79661,-0.78007 -62.42851,0.0503 l -0.59748,0.27166 z"
           id="path4640-1-8"
           inkscape:connector-curvature="0" />
        <path
           style="color:#000000;clip-rule:nonzero;display:inline;overflow:visible;visibility:visible;opacity:1;isolation:auto;mix-blend-mode:normal;color-interpolation:sRGB;color-interpolation-filters:linearRGB;solid-color:#000000;solid-opacity:1;fill:#716b6b;fill-opacity:1;fill-rule:nonzero;stroke:#000000;stroke-width:4.31552744;stroke-linecap:round;stroke-linejoin:round;stroke-miterlimit:4;stroke-dasharray:none;stroke-dashoffset:0;stroke-opacity:1;color-rendering:auto;image-rendering:auto;shape-rendering:auto;text-rendering:auto;enable-background:accumulate"
           d="m 386.40625,233.05943 c -14.05595,0.7497 -28.54334,-0.30693 -42.32813,1.57812 -4.1189,22.26622 -6.51334,44.99572 -11.07812,67.17774 2.5108,5.14117 11.04905,1.09705 15.96484,2.3789 26.38018,-0.27958 53.00192,0.55572 79.2326,-0.41389 2.53162,-5.22701 0.37319,-12.56279 1.08967,-18.58611 -0.2752,-17.27175 0.55089,-34.78211 -0.41389,-51.90446 -5.24894,-2.48944 -12.58605,-0.12815 -18.62532,-0.73201 -7.94721,0.16723 -15.89443,0.33447 -23.84165,0.50171 z"
           id="path4642-2-4"
           inkscape:connector-curvature="0" />
        <path
           style="color:#000000;clip-rule:nonzero;display:inline;overflow:visible;visibility:visible;opacity:1;isolation:auto;mix-blend-mode:normal;color-interpolation:sRGB;color-interpolation-filters:linearRGB;solid-color:#000000;solid-opacity:1;fill:#5e524c;fill-opacity:1;fill-rule:nonzero;stroke:#000000;stroke-width:4.31552744;stroke-linecap:round;stroke-linejoin:round;stroke-miterlimit:4;stroke-dasharray:none;stroke-dashoffset:0;stroke-opacity:1;color-rendering:auto;image-rendering:auto;shape-rendering:auto;text-rendering:auto;enable-background:accumulate"
           d="m 355.58984,156.00084 c -4.07847,22.77446 -6.0568,46.03984 -10.90039,68.74218 2.48521,5.15888 11.04903,1.10384 15.96094,2.38867 22.48501,-0.27951 45.21165,0.5562 67.54705,-0.41389 2.53162,-5.22701 0.37319,-12.56279 1.08967,-18.58611 -0.27579,-17.21238 0.55195,-34.66385 -0.41389,-51.72673 -5.22702,-2.53163 -12.5628,-0.37319 -18.58611,-1.08967 -18.00252,0.27984 -36.24741,-0.55897 -54.09978,0.41389 l -0.59749,0.27166 z"
           id="path4644-9-8"
           inkscape:connector-curvature="0" />
        <path
           style="color:#000000;clip-rule:nonzero;display:inline;overflow:visible;visibility:visible;opacity:1;isolation:auto;mix-blend-mode:normal;color-interpolation:sRGB;color-interpolation-filters:linearRGB;solid-color:#000000;solid-opacity:1;fill:#847c7c;fill-opacity:1;fill-rule:nonzero;stroke:#000000;stroke-width:4.31552744;stroke-linecap:round;stroke-linejoin:round;stroke-miterlimit:4;stroke-dasharray:none;stroke-dashoffset:0;stroke-opacity:1;color-rendering:auto;image-rendering:auto;shape-rendering:auto;text-rendering:auto;enable-background:accumulate"
           d="m 281.16211,156.00084 c -6.33517,21.44217 -12.96479,42.90338 -18.99219,64.45507 -1.79856,5.70243 6.20308,5.21917 9.64649,5.71289 20.79365,1.61461 41.67194,0.73004 62.5039,0.96289 4.13627,-2.73466 2.77245,-9.56496 4.45532,-14.04386 2.74696,-17.28 6.49919,-34.62176 7.09351,-52.10848 -2.51233,-6.65965 -11.57033,-4.73582 -17.18914,-5.51734 -15.61348,-0.0431 -31.45691,-0.61994 -46.9204,0.26717 l -0.59749,0.27166 z"
           id="path4646-3-1"
           inkscape:connector-curvature="0" />
        <path
           style="color:#000000;clip-rule:nonzero;display:inline;overflow:visible;visibility:visible;opacity:1;isolation:auto;mix-blend-mode:normal;color-interpolation:sRGB;color-interpolation-filters:linearRGB;solid-color:#000000;solid-opacity:1;fill:#776b65;fill-opacity:1;fill-rule:nonzero;stroke:#000000;stroke-width:4.31552744;stroke-linecap:round;stroke-linejoin:round;stroke-miterlimit:4;stroke-dasharray:none;stroke-dashoffset:0;stroke-opacity:1;color-rendering:auto;image-rendering:auto;shape-rendering:auto;text-rendering:auto;enable-background:accumulate"
           d="m 295.75391,233.05162 c -12.41944,0.7501 -25.27369,-0.29326 -37.41797,1.59179 -6.30666,21.57187 -12.88522,43.1893 -17.98047,65.10743 1.10034,4.59648 7.75807,2.66378 11.24609,3.54687 24.13518,0.96967 48.28361,-0.35062 72.41992,-0.64453 4.36285,-3.51771 2.30777,-11.35227 4.12743,-16.54602 2.18631,-17.49151 6.13214,-35.2022 5.19039,-52.79114 -5.21166,-2.57222 -12.61099,-0.11712 -18.65464,-0.72239 -6.31025,0.15266 -12.6205,0.30533 -18.93075,0.45799 z"
           id="path4648-9-0"
           inkscape:connector-curvature="0" />
        <path
           style="color:#000000;clip-rule:nonzero;display:inline;overflow:visible;visibility:visible;opacity:1;isolation:auto;mix-blend-mode:normal;color-interpolation:sRGB;color-interpolation-filters:linearRGB;solid-color:#000000;solid-opacity:1;fill:#5e524c;fill-opacity:1;fill-rule:nonzero;stroke:#000000;stroke-width:4.31552744;stroke-linecap:round;stroke-linejoin:round;stroke-miterlimit:4;stroke-dasharray:none;stroke-dashoffset:0;stroke-opacity:1;color-rendering:auto;image-rendering:auto;shape-rendering:auto;text-rendering:auto;enable-background:accumulate"
           d="m 212.51758,233.05357 c -12.29224,0.76111 -25.02891,-0.31012 -37.04492,1.58984 -9.28123,22.18136 -18.28855,44.50725 -27.31641,66.80469 1.61674,5.7459 11.0521,1.39211 15.85547,2.74609 22.02703,-0.27788 44.29457,0.5543 66.17204,-0.41389 4.03537,-9.01894 5.32207,-19.8849 8.55062,-29.55095 3.45841,-13.53768 8.25383,-26.9347 11.16354,-40.47575 -3.93341,-3.58432 -11.5025,-0.32197 -16.82119,-1.20147 -6.85305,0.16714 -13.7061,0.33429 -20.55915,0.50144 z"
           id="path4650-0-3"
           inkscape:connector-curvature="0" />
        <path
           style="color:#000000;clip-rule:nonzero;display:inline;overflow:visible;visibility:visible;opacity:1;isolation:auto;mix-blend-mode:normal;color-interpolation:sRGB;color-interpolation-filters:linearRGB;solid-color:#000000;solid-opacity:1;fill:#716b6b;fill-opacity:1;fill-rule:nonzero;stroke:#000000;stroke-width:4.31552744;stroke-linecap:round;stroke-linejoin:round;stroke-miterlimit:4;stroke-dasharray:none;stroke-dashoffset:0;stroke-opacity:1;color-rendering:auto;image-rendering:auto;shape-rendering:auto;text-rendering:auto;enable-background:accumulate"
           d="m 251.32617,155.73521 c -14.82363,0.45682 -29.89319,0.24491 -44.54052,1.56121 -6.7381,13.53733 -11.86403,28.52834 -17.70502,42.74478 -2.23529,7.36703 -6.53895,14.53842 -7.00836,22.26042 3.59593,5.42848 11.75972,3.59135 17.35473,4.54807 17.3783,0.29856 34.99392,0.70637 52.22551,-0.13189 4.45665,-9.82345 6.34729,-21.51382 9.8111,-32.05756 3.02312,-11.69011 7.21286,-23.20855 9.90944,-34.88401 -2.86091,-5.47249 -10.84204,-3.28669 -15.91787,-4.03994 -1.37623,-0.0214 -2.7527,0.002 -4.12901,-0.001 z"
           id="path4652-8-0"
           inkscape:connector-curvature="0" />
      </g>
    </g>
  </g>
</svg>
